<svg xmlns="http://www.w3.org/2000/svg" viewBox="-447 -986 1184 1313">
	<path fill="#000000" d="M477 -170C477 -239 431 -296 349 -333C420 -379 447 -434 447 -487C447 -559 375 -622 263 -622C147 -622 77 -579 77 -512C77 -485 97 -473 113 -473C130 -473 148 -487 148 -510C148 -520 144 -528 135 -538C176 -579 254 -580 264 -580C341 -580 396 -537 396 -486C396 -452 380 -413 349 -388C314 -359 287 -357 247 -355C198 -351 182 -350 182 -331C182 -309 201 -309 213 -309H261C371 -309 426 -234 426 -170C426 -102 365 -31 264 -31C220 -31 136 -45 103 -103C113 -113 118 -118 118 -133C118 -153 103 -169 83 -169C65 -169 47 -156 47 -130C47 -43 144 11 264 11C393 11 477 -78 477 -170Z"/>
</svg>