<?xml version="1.0" encoding="UTF-8" standalone="no"?>
<!-- Created with Inkscape (http://www.inkscape.org/) -->

<svg
   width="1.7995318mm"
   height="2.7096977mm"
   viewBox="0 0 1.7995318 2.7096977"
   version="1.1"
   id="svg1"
   inkscape:version="1.3.2 (091e20e, 2023-11-25, custom)"
   sodipodi:docname="lmm_9_ink.svg"
   xmlns:inkscape="http://www.inkscape.org/namespaces/inkscape"
   xmlns:sodipodi="http://sodipodi.sourceforge.net/DTD/sodipodi-0.dtd"
   xmlns="http://www.w3.org/2000/svg"
   xmlns:svg="http://www.w3.org/2000/svg">
  <sodipodi:namedview
     id="namedview1"
     pagecolor="#ffffff"
     bordercolor="#111111"
     borderopacity="1"
     inkscape:showpageshadow="0"
     inkscape:pageopacity="0"
     inkscape:pagecheckerboard="1"
     inkscape:deskcolor="#d1d1d1"
     inkscape:document-units="mm"
     inkscape:zoom="25.057912"
     inkscape:cx="-3.6515412"
     inkscape:cy="10.076657"
     inkscape:window-width="1920"
     inkscape:window-height="1057"
     inkscape:window-x="-8"
     inkscape:window-y="-8"
     inkscape:window-maximized="1"
     inkscape:current-layer="layer1" />
  <defs
     id="defs1" />
  <g
     inkscape:label="Layer 1"
     inkscape:groupmode="layer"
     id="layer1"
     transform="translate(-86.220582,-111.43619)">
    <path
       d="m 88.005114,112.76352 c 0,-1.02023 -0.4699,-1.31233 -0.872066,-1.31233 -0.4699,0 -0.897466,0.35137 -0.897466,0.8636 0,0.4826 0.372533,0.85936 0.838199,0.85936 0.220133,0 0.440266,-0.072 0.630766,-0.24553 -0.04233,0.52493 -0.372533,0.94403 -0.778933,0.94403 -0.0381,0 -0.190499,-0.004 -0.279399,-0.072 0.01693,-0.0212 0.0381,-0.0466 0.0381,-0.11854 0,-0.1016 -0.0762,-0.18626 -0.186267,-0.18626 -0.105833,0 -0.1905,0.072 -0.1905,0.19896 0,0.13547 0.0762,0.43604 0.618066,0.43604 0.5588,0 1.0795,-0.52917 1.0795,-1.36737 z m -0.3302,-0.32597 c 0,0.23284 -0.2286,0.47414 -0.579966,0.47414 -0.3429,0 -0.567267,-0.28364 -0.567267,-0.5969 0,-0.3683 0.300567,-0.60537 0.605367,-0.60537 0.182033,0 0.300566,0.0974 0.368299,0.18204 0.135467,0.1651 0.173567,0.24553 0.173567,0.54609 z"
       id="text1"
       style="font-size:4.23333px;font-family:'Latin Modern Mono';-inkscape-font-specification:'Latin Modern Mono, Normal';fill:none;stroke:#000000;stroke-width:0.03"
       aria-label="9" />
  </g>
</svg>
