<?xml version="1.0" encoding="UTF-8" standalone="no"?>
<!-- Created with Inkscape (http://www.inkscape.org/) -->

<svg
   width="1.8757318mm"
   height="2.7308643mm"
   viewBox="0 0 1.8757318 2.7308643"
   version="1.1"
   id="svg1"
   inkscape:version="1.3.2 (091e20e, 2023-11-25, custom)"
   sodipodi:docname="lmm_7_ink.svg"
   xmlns:inkscape="http://www.inkscape.org/namespaces/inkscape"
   xmlns:sodipodi="http://sodipodi.sourceforge.net/DTD/sodipodi-0.dtd"
   xmlns="http://www.w3.org/2000/svg"
   xmlns:svg="http://www.w3.org/2000/svg">
  <sodipodi:namedview
     id="namedview1"
     pagecolor="#ffffff"
     bordercolor="#111111"
     borderopacity="1"
     inkscape:showpageshadow="0"
     inkscape:pageopacity="0"
     inkscape:pagecheckerboard="1"
     inkscape:deskcolor="#d1d1d1"
     inkscape:document-units="mm"
     inkscape:zoom="17.71862"
     inkscape:cx="13.347541"
     inkscape:cy="0.25397012"
     inkscape:window-width="1920"
     inkscape:window-height="1057"
     inkscape:window-x="-8"
     inkscape:window-y="-8"
     inkscape:window-maximized="1"
     inkscape:current-layer="layer1" />
  <defs
     id="defs1" />
  <g
     inkscape:label="Layer 1"
     inkscape:groupmode="layer"
     id="layer1"
     transform="translate(-77.342432,-98.632803)">
    <path
       d="m 79.203164,98.84677 c 0,-0.131233 -0.1016,-0.131233 -0.169333,-0.131233 h -1.396999 c -0.0254,-0.06773 -0.1016,-0.06773 -0.135467,-0.06773 -0.143933,0 -0.143933,0.09313 -0.143933,0.173567 v 0.1778 c 0,0.08043 0,0.173566 0.143933,0.173566 0.148167,0 0.148167,-0.08043 0.148167,-0.198966 h 1.117599 c -0.732366,0.778932 -0.876299,1.71026 -0.876299,2.17593 0,0.0593 0,0.19897 0.148166,0.19897 0.07197,0 0.143933,-0.0466 0.143933,-0.16934 0.02117,-1.202261 0.668866,-1.93886 0.9271,-2.188627 0.08467,-0.0762 0.09313,-0.08467 0.09313,-0.143933 z"
       id="text1"
       style="font-size:4.23333px;font-family:'Latin Modern Mono';-inkscape-font-specification:'Latin Modern Mono, Normal';fill:none;stroke:#000000;stroke-width:0.03"
       aria-label="7" />
  </g>
</svg>
