<?xml version="1.0" encoding="UTF-8" standalone="no"?>
<!-- Created with Inkscape (http://www.inkscape.org/) -->

<svg
   width="1.8079985mm"
   height="2.6631312mm"
   viewBox="0 0 1.8079985 2.6631312"
   version="1.1"
   id="svg1"
   inkscape:version="1.3.2 (091e20e, 2023-11-25, custom)"
   sodipodi:docname="lmm_2_ink.svg"
   xmlns:inkscape="http://www.inkscape.org/namespaces/inkscape"
   xmlns:sodipodi="http://sodipodi.sourceforge.net/DTD/sodipodi-0.dtd"
   xmlns="http://www.w3.org/2000/svg"
   xmlns:svg="http://www.w3.org/2000/svg">
  <sodipodi:namedview
     id="namedview1"
     pagecolor="#ffffff"
     bordercolor="#111111"
     borderopacity="1"
     inkscape:showpageshadow="0"
     inkscape:pageopacity="0"
     inkscape:pagecheckerboard="1"
     inkscape:deskcolor="#d1d1d1"
     inkscape:document-units="mm"
     inkscape:zoom="35.43724"
     inkscape:cx="3.1464076"
     inkscape:cy="6.4480192"
     inkscape:window-width="1920"
     inkscape:window-height="1057"
     inkscape:window-x="-8"
     inkscape:window-y="-8"
     inkscape:window-maximized="1"
     inkscape:current-layer="layer1" />
  <defs
     id="defs1" />
  <g
     inkscape:label="Layer 1"
     inkscape:groupmode="layer"
     id="layer1"
     transform="translate(-102.58399,-93.98668)">
    <path
       d="m 104.37698,96.461245 v -0.110067 c 0,-0.08043 0,-0.173566 -0.14393,-0.173566 -0.14817,0 -0.14817,0.08043 -0.14817,0.198966 h -1.00753 c 0.24977,-0.2159 0.65617,-0.533399 0.8382,-0.702732 0.2667,-0.237067 0.46143,-0.508 0.46143,-0.846666 0,-0.508 -0.42756,-0.8255 -0.94403,-0.8255 -0.49953,0 -0.83396,0.347133 -0.83396,0.706966 0,0.156634 0.11853,0.2032 0.1905,0.2032 0.0889,0 0.18626,-0.07197 0.18626,-0.1905 0,-0.0508 -0.0212,-0.105833 -0.0593,-0.135466 0.0635,-0.194733 0.26246,-0.325967 0.4953,-0.325967 0.34713,0 0.67309,0.194734 0.67309,0.567267 0,0.296333 -0.20743,0.541866 -0.48683,0.774699 l -0.93556,0.787399 c -0.0381,0.03387 -0.0635,0.05503 -0.0635,0.1143 0,0.131233 0.10583,0.131233 0.17356,0.131233 h 1.4351 c 0.1397,0 0.16933,-0.0381 0.16933,-0.173566 z"
       id="text1"
       style="font-size:4.23333px;font-family:'Latin Modern Mono';-inkscape-font-specification:'Latin Modern Mono, Normal';fill:none;stroke:#000000;stroke-width:0.03"
       aria-label="2" />
  </g>
</svg>
