<?xml version="1.0" encoding="UTF-8" standalone="no"?>
<!-- Created with Inkscape (http://www.inkscape.org/) -->

<svg
   width="1.7995318mm"
   height="2.7096977mm"
   viewBox="0 0 1.7995318 2.7096977"
   version="1.1"
   id="svg1"
   inkscape:version="1.3.2 (091e20e, 2023-11-25, custom)"
   sodipodi:docname="lmm_6_ink.svg"
   xmlns:inkscape="http://www.inkscape.org/namespaces/inkscape"
   xmlns:sodipodi="http://sodipodi.sourceforge.net/DTD/sodipodi-0.dtd"
   xmlns="http://www.w3.org/2000/svg"
   xmlns:svg="http://www.w3.org/2000/svg">
  <sodipodi:namedview
     id="namedview1"
     pagecolor="#ffffff"
     bordercolor="#111111"
     borderopacity="1"
     inkscape:showpageshadow="0"
     inkscape:pageopacity="0"
     inkscape:pagecheckerboard="1"
     inkscape:deskcolor="#d1d1d1"
     inkscape:document-units="mm"
     inkscape:zoom="35.43724"
     inkscape:cx="0.83245762"
     inkscape:cy="4.190507"
     inkscape:window-width="1920"
     inkscape:window-height="1057"
     inkscape:window-x="-8"
     inkscape:window-y="-8"
     inkscape:window-maximized="1"
     inkscape:current-layer="layer1" />
  <defs
     id="defs1" />
  <g
     inkscape:label="Layer 1"
     inkscape:groupmode="layer"
     id="layer1"
     transform="translate(-96.506287,-74.220468)">
    <path
       d="m 98.290819,76.051566 c 0,-0.482599 -0.372533,-0.859366 -0.838199,-0.859366 -0.220133,0 -0.440266,0.07197 -0.630766,0.245533 0.05927,-0.596899 0.457199,-0.944032 0.829732,-0.944032 0.143934,0 0.211667,0.04657 0.232833,0.06773 -0.02117,0.02117 -0.04233,0.04657 -0.04233,0.122767 0,0.1016 0.0762,0.186266 0.186267,0.186266 0.105833,0 0.190499,-0.07197 0.190499,-0.198966 0,-0.207433 -0.152399,-0.436033 -0.563032,-0.436033 -0.567267,0 -1.134533,0.512233 -1.134533,1.367365 0,1.003299 0.474133,1.312333 0.893233,1.312333 0.461433,0 0.876299,-0.3556 0.876299,-0.8636 z m -0.2921,0 c 0,0.364067 -0.279399,0.605366 -0.584199,0.605366 -0.275167,0 -0.440266,-0.207433 -0.524933,-0.465666 -0.04233,-0.1016 -0.03387,-0.2032 -0.03387,-0.262466 0,-0.262467 0.254,-0.474133 0.575733,-0.474133 0.3429,0 0.567266,0.283633 0.567266,0.596899 z"
       id="text1"
       style="font-size:4.23333px;font-family:'Latin Modern Mono';-inkscape-font-specification:'Latin Modern Mono, Normal';fill:none;stroke:#000000;stroke-width:0.03"
       aria-label="6" />
  </g>
</svg>
