<?xml version="1.0" encoding="UTF-8" standalone="no"?>
<!-- Created with Inkscape (http://www.inkscape.org/) -->

<svg
   width="2.0027316mm"
   height="2.6673644mm"
   viewBox="0 0 2.0027316 2.6673644"
   version="1.1"
   id="svg1"
   xmlns="http://www.w3.org/2000/svg"
   xmlns:svg="http://www.w3.org/2000/svg">
  <defs
     id="defs1" />
  <g
     id="layer1"
     transform="translate(-65.363458,-90.706148)">
    <path
       d="m 67.35119,92.51608 c 0,-0.131233 -0.1016,-0.131233 -0.169333,-0.131233 h -0.3302 v -1.490132 c 0,-0.1397 -0.02963,-0.173567 -0.173567,-0.173567 h -0.118533 c -0.1016,0 -0.122766,0.0042 -0.1778,0.0889 l -0.965199,1.515532 c -0.0381,0.05503 -0.0381,0.0635 -0.0381,0.148167 0,0.1397 0.0381,0.169333 0.169333,0.169333 h 1.066799 v 0.4572 h -0.262466 c -0.06773,0 -0.169333,0 -0.169333,0.131233 0,0.127 0.105833,0.127 0.169333,0.127 h 0.761999 c 0.0635,0 0.169333,0 0.169333,-0.127 0,-0.131233 -0.101599,-0.131233 -0.169333,-0.131233 h -0.262466 v -0.4572 h 0.3302 c 0.0635,0 0.169333,0 0.169333,-0.127 z m -0.7366,-0.131233 h -0.939799 l 0.939799,-1.477432 z"
       id="text1"
       style="font-size:4.23333px;font-family:'Latin Modern Mono';-inkscape-font-specification:'Latin Modern Mono, Normal';fill:none;stroke:#000000;stroke-width:0.03"
       aria-label="4" />
  </g>
</svg>
