<?xml version="1.0" encoding="UTF-8" standalone="no"?>
<!-- Created with Inkscape (http://www.inkscape.org/) -->

<svg
   width="1.895732mm"
   height="2.7296979mm"
   viewBox="0 0 1.895732 2.7296979"
   version="1.1"
   id="svg1"
   inkscape:version="1.3.2 (091e20e, 2023-11-25, custom)"
   sodipodi:docname="lmm_8_ink.svg"
   xmlns:inkscape="http://www.inkscape.org/namespaces/inkscape"
   xmlns:sodipodi="http://sodipodi.sourceforge.net/DTD/sodipodi-0.dtd"
   xmlns="http://www.w3.org/2000/svg"
   xmlns:svg="http://www.w3.org/2000/svg">
  <sodipodi:namedview
     id="namedview1"
     pagecolor="#ffffff"
     bordercolor="#111111"
     borderopacity="1"
     inkscape:showpageshadow="0"
     inkscape:pageopacity="0"
     inkscape:pagecheckerboard="false"
     inkscape:deskcolor="#d1d1d1"
     inkscape:document-units="mm"
     inkscape:zoom="70.874479"
     inkscape:cx="3.0899698"
     inkscape:cy="5.7637108"
     inkscape:window-width="1920"
     inkscape:window-height="1057"
     inkscape:window-x="-8"
     inkscape:window-y="-8"
     inkscape:window-maximized="1"
     inkscape:current-layer="layer1" />
  <defs
     id="defs1" />
  <g
     inkscape:label="Layer 1"
     inkscape:groupmode="layer"
     id="layer1"
     transform="translate(-90.950878,-76.663318)">
    <path
       style="font-size:4.23333px;font-family:'Latin Modern Mono';-inkscape-font-specification:'Latin Modern Mono, Normal';fill:none;stroke:#000000;stroke-width:0.03;stroke-dasharray:none;stroke-opacity:1"
       d="m 92.82161,78.58485 c 0,-0.3175 -0.275166,-0.567266 -0.588433,-0.656166 0.338667,-0.1143 0.529166,-0.321733 0.529166,-0.563033 0,-0.347133 -0.359833,-0.677333 -0.863599,-0.677333 -0.507999,0 -0.863599,0.334433 -0.863599,0.677333 0,0.2413 0.194733,0.452966 0.529166,0.563033 -0.3175,0.0889 -0.588433,0.338666 -0.588433,0.656166 0,0.410633 0.3937,0.783166 0.922866,0.783166 0.5334,0 0.922866,-0.372533 0.922866,-0.783166 z m -0.351366,-1.214966 c 0,0.2413 -0.262467,0.427567 -0.5715,0.427567 -0.309033,0 -0.571499,-0.1905 -0.571499,-0.427567 0,-0.220133 0.237066,-0.423333 0.571499,-0.423333 0.3302,0 0.5715,0.2032 0.5715,0.423333 z m 0.05927,1.210733 c 0,0.292099 -0.279399,0.529166 -0.630766,0.529166 -0.351366,0 -0.630766,-0.237067 -0.630766,-0.529166 0,-0.258234 0.245533,-0.524933 0.630766,-0.524933 0.389467,0 0.630766,0.266699 0.630766,0.524933 z"
       id="text1"
       aria-label="8" />
  </g>
</svg>
