<?xml version="1.0" encoding="UTF-8" standalone="no"?>
<!-- Created with Inkscape (http://www.inkscape.org/) -->

<svg
   width="1.8079985mm"
   height="2.6631312mm"
   viewBox="0 0 1.8079985 2.6631312"
   version="1.1"
   id="svg1"
   inkscape:version="1.3.2 (091e20e, 2023-11-25, custom)"
   sodipodi:docname="lmm_5_ink.svg"
   xmlns:inkscape="http://www.inkscape.org/namespaces/inkscape"
   xmlns:sodipodi="http://sodipodi.sourceforge.net/DTD/sodipodi-0.dtd"
   xmlns="http://www.w3.org/2000/svg"
   xmlns:svg="http://www.w3.org/2000/svg">
  <sodipodi:namedview
     id="namedview1"
     pagecolor="#ffffff"
     bordercolor="#111111"
     borderopacity="1"
     inkscape:showpageshadow="0"
     inkscape:pageopacity="0"
     inkscape:pagecheckerboard="1"
     inkscape:deskcolor="#d1d1d1"
     inkscape:document-units="mm"
     inkscape:zoom="25.057912"
     inkscape:cx="2.773575"
     inkscape:cy="4.6492301"
     inkscape:window-width="1920"
     inkscape:window-height="1057"
     inkscape:window-x="-8"
     inkscape:window-y="-8"
     inkscape:window-maximized="1"
     inkscape:current-layer="layer1" />
  <defs
     id="defs1" />
  <g
     inkscape:label="Layer 1"
     inkscape:groupmode="layer"
     id="layer1"
     transform="translate(-94.474756,-94.709013)">
    <path
       d="m 96.267754,96.506245 c 0,-0.427567 -0.325966,-0.842433 -0.825499,-0.842433 -0.148166,0 -0.334433,0.02963 -0.507999,0.122767 v -0.804333 h 1.015999 c 0.0635,0 0.169333,0 0.169333,-0.127 0,-0.131233 -0.1016,-0.131233 -0.169333,-0.131233 h -1.138766 c -0.1397,0 -0.169333,0.0381 -0.169333,0.173566 v 1.126066 c 0,0.0762 0,0.173567 0.135466,0.173567 0.0762,0 0.09313,-0.02117 0.127,-0.0635 0.1143,-0.135467 0.287867,-0.211667 0.5334,-0.211667 0.347133,0 0.537633,0.309033 0.537633,0.5842 0,0.338666 -0.300567,0.592666 -0.656166,0.592666 -0.118534,0 -0.389467,-0.03387 -0.508,-0.2667 0.02117,-0.02117 0.05503,-0.0508 0.05503,-0.135466 0,-0.122767 -0.09737,-0.1905 -0.186266,-0.1905 -0.0635,0 -0.1905,0.0381 -0.1905,0.2032 0,0.351366 0.3556,0.647699 0.829733,0.647699 0.529166,0 0.948265,-0.381 0.948265,-0.850899 z"
       id="text1"
       style="font-size:4.23333px;font-family:'Latin Modern Mono';-inkscape-font-specification:'Latin Modern Mono, Normal';fill:none;stroke:#000000;stroke-width:0.03"
       aria-label="5" />
  </g>
</svg>
