<?xml version="1.0" ?>
<svg xmlns="http://www.w3.org/2000/svg" xmlns:ev="http://www.w3.org/2001/xml-events" xmlns:xlink="http://www.w3.org/1999/xlink" baseProfile="full" height="600px" version="1.1" viewBox="-0.03200000000000003 -6.432 36.064 76.864" width="282px">
	<defs/>
	<path d="M 33.0,63.0 L 33.0,62.0 L 31.0,62.0 L 31.0,62.0 L 28.0,62.0 L 27.0,61.0 L 26.0,60.0 L 26.0,21.0 L 26.0,10.0 L 22.0,0.0 L 13.0,0.0 L 11.0,0.0 L 4.0,0.0 L 4.0,7.0 L 4.0,11.0 L 5.0,13.0 L 7.0,13.0 L 7.0,13.0 L 9.0,12.0 L 9.0,7.0 L 9.0,4.0 L 11.0,3.0 L 13.0,3.0 L 19.0,3.0 L 23.0,9.0 L 23.0,24.0 L 11.0,47.0 L 3.0,50.0 L 3.0,56.0 L 3.0,61.0 L 7.0,64.0 L 13.0,64.0 L 15.0,64.0 L 19.0,64.0 L 23.0,62.0 L 25.0,64.0 L 28.0,64.0 L 30.0,64.0 L 31.0,64.0 L 33.0,64.0 L 23.0,56.0 L 23.0,58.0 L 23.0,60.0 L 20.0,61.0 L 17.0,62.0 L 14.0,62.0 L 13.0,62.0 L 9.0,62.0 L 6.0,59.0 L 6.0,56.0 L 6.0,53.0 L 12.0,50.0 L 23.0,50.0 L 33.0,63.0" fill="none" stroke="#000000" stroke-width="0.064"/>
</svg>
